<?xml version="1.0" encoding="utf-8"?>
<!-- Generator: Adobe Illustrator 24.1.3, SVG Export Plug-In . SVG Version: 6.00 Build 0)  -->
<svg version="1.1" xmlns="http://www.w3.org/2000/svg" xmlns:xlink="http://www.w3.org/1999/xlink" x="0px" y="0px"
	 viewBox="0 0 100 100" style="enable-background:new 0 0 100 100;" xml:space="preserve">
<g id="Layer_2">
</g>
<g id="Layer_1">
	<g>
		<path d="M99.9,34.1L99.9,34.1C99,22.3,89.8,12.7,78,11.3c-2.8-0.3-5.7-0.2-8.4,0.3c-4.7-6-11.9-9.5-19.7-9.5s-15,3.5-19.7,9.5
			c-2.7-0.5-5.6-0.6-8.3-0.3C10.2,12.6,1,22.3,0.1,34C-1,45.9,6.6,56.8,17.8,60.2v33.7c0,2.2,1.8,4,4,4h56.4c2.2,0,4-1.8,4-4V60.2
			C93.3,56.8,100.9,45.9,99.9,34.1z M25.8,89.9V78.4h48.4v11.5H25.8z M77.6,53.1c-1.9,0.3-3.4,2-3.4,4v13.4H25.8V57.1
			c0-2-1.5-3.7-3.4-4c-8.7-1.4-15.1-9.5-14.3-18.4c0.6-8,6.9-14.5,14.8-15.6c2.6-0.3,5.3-0.1,7.7,0.7c1.8,0.6,3.7-0.1,4.7-1.7
			C38.5,13,44,10,50,10s11.5,3.1,14.6,8.1c0.9,1.6,2.9,2.3,4.7,1.7c2.5-0.8,5.1-1.1,7.8-0.7c8,1.1,14.2,7.6,14.8,15.6
			C92.7,43.6,86.3,51.7,77.6,53.1z"/>
	</g>
</g>
</svg>
