<?xml version="1.0" encoding="utf-8"?>
<!-- Generator: Adobe Illustrator 24.1.3, SVG Export Plug-In . SVG Version: 6.00 Build 0)  -->
<svg version="1.1" id="Layer_1" xmlns="http://www.w3.org/2000/svg" xmlns:xlink="http://www.w3.org/1999/xlink" x="0px" y="0px"
	 viewBox="0 0 100 100" style="enable-background:new 0 0 100 100;" xml:space="preserve">
<g>
	<path d="M95.1,59.8c0.7,0.9,2.4,1.2,3.3,0.2s1.2-2.4,0.2-3.3c-7.8-9.5-18.7-9-23.5-7.3c-0.5-0.7-0.7-1.2-1.2-1.7
		c8.3-8.8,10.7-9.5,11.1-12.8c0.2-1.9-0.2-3.6-1.2-5.2C90.9,19,80.9-2.8,71.2,1.2c-0.2,0-0.5,0.2-0.5,0.2c2.4,1.9,5.9,5.7,5.4,11.1
		c0,0-0.9,5,0.2,7.3c0,0-5.7-6.4-8.1-5.2c-0.9,0.5-1.9-0.2-2.6-1.2c0,2.4,0.5,4.7,1.2,7.1c0.9,3.1,2.4,5.7,4,7.8
		c-1.4,1.9-0.9,3.1-2.8,13.7c-2.1-1.4-4.7-2.4-7.3-2.6c-0.2-1.4,1.4-7.6-3.3-7.6s-3.1,6.2-3.3,7.3h-9.5v-4c0-1.9-1.4-3.3-3.3-3.3
		S38,33.5,38,35.3v4.3c-3.8,0.7-7.1,2.1-9.7,4.3l-2.1-12.8c-0.2-0.9-0.5-1.9-0.9-2.6c1.7-2.1,3.1-4.7,4-7.8c0.7-2.4,1.2-5,1.2-7.1
		c-0.7,0.9-1.7,1.4-2.6,1.2c-2.4-1.2-8.1,5.2-8.1,5.2c1.2-2.4,0.2-7.3,0.2-7.3c-0.5-5.2,2.8-9.2,5.4-11.1c-0.2,0-0.2-0.2-0.5-0.2
		c-5-2.1-11.1,3.1-13.7,11.8c-1.7,5.2-1.9,12.1,0.9,16.6c-2.1,3.1-1.7,6.4,0.5,8.5l11.1,10.9c0,0,0,0,0,0.2
		c-5-1.7-15.6-2.1-23.2,7.3c-0.9,0.9-0.7,2.6,0.2,3.3c0.9,0.9,2.6,0.7,3.3-0.2c6.6-8.1,14.9-6.6,17.5-6.2c-1.2,3.3-1.4,5.7-1.2,8.5
		c-5.4-0.7-13.7,0.5-19.9,8.1c-0.9,0.9-0.7,2.6,0.2,3.3c0.9,0.9,2.6,0.7,3.3-0.2c6.2-7.3,13.7-6.9,16.8-6.2c0.7,3.1,2.4,5.9,4.3,8.5
		C19.6,78,12,83.7,12.4,96.5c0,1.2,1.2,2.4,2.4,2.4l0,0c1.4,0,2.4-1.2,2.4-2.4C17,84.6,24.8,80.6,29,79.4c3.6,2.6,8.1,4.3,12.8,4.3
		h16.1c5,0,9.7-1.7,13.3-4.7c3.3,0.7,14,3.8,13.7,17.5c0,1.4,0.9,2.4,2.4,2.4l0,0c1.2,0,2.4-0.9,2.4-2.4c0.5-14.5-9-19.7-14.7-21.6
		c1.7-2.4,3.1-4.7,3.8-7.6c2.8-0.7,10.9-1.4,17.1,6.2c0.7,0.9,2.4,1.2,3.3,0.2s1.2-2.4,0.2-3.3c-6.4-7.6-14.7-8.8-20.1-8.1
		c0-2.8,0-5.2-1.2-8.5C80,53.1,88.5,51.7,95.1,59.8z"/>
</g>
</svg>
