<svg height='100px' width='100px'  fill="#000000" xmlns="http://www.w3.org/2000/svg" xmlns:xlink="http://www.w3.org/1999/xlink" version="1.1" x="0px" y="0px" viewBox="0 0 100 100" enable-background="new 0 0 100 100" xml:space="preserve"><g display="none"><g display="inline"><g><path fill="#000000" stroke="#000000" stroke-width="1.7301" stroke-miterlimit="10" d="M49.858,25.458"></path></g><g><path fill="#000000" stroke="#000000" stroke-width="1.7301" stroke-miterlimit="10" d="M49.858,25.458"></path></g><g><path fill="#000000" d="M31.665,43.35c-0.453,0.041-0.787,0.441-0.747,0.893l3.547,39.397c0.038,0.427,0.397,0.748,0.819,0.748     c0.023,0,0.049-0.001,0.074-0.003c0.454-0.041,0.787-0.44,0.746-0.895l-3.546-39.395C32.517,43.644,32.113,43.308,31.665,43.35z"></path><path fill="#000000" d="M42.015,44.991c-0.455,0.019-0.807,0.402-0.788,0.856l1.644,39.5c0.019,0.442,0.383,0.789,0.822,0.789     c0.012,0,0.024,0,0.035-0.001c0.455-0.02,0.807-0.402,0.789-0.857l-1.644-39.498C42.853,45.325,42.464,44.962,42.015,44.991z"></path><path fill="#000000" d="M59.726,84.385c0.026,0.002,0.052,0.003,0.076,0.003c0.421,0,0.78-0.321,0.818-0.748l3.557-39.397     c0.04-0.452-0.294-0.853-0.746-0.893c-0.468-0.042-0.854,0.294-0.894,0.745L58.98,83.49     C58.94,83.943,59.274,84.344,59.726,84.385z"></path><path fill="#000000" d="M51.366,86.135c0.012,0.001,0.023,0.001,0.036,0.001c0.438,0,0.803-0.348,0.82-0.789l1.644-39.5     c0.019-0.455-0.334-0.837-0.787-0.856c-0.455-0.007-0.839,0.334-0.856,0.789l-1.645,39.498     C50.56,85.732,50.912,86.115,51.366,86.135z"></path><path fill="#000000" d="M29.347,33.708c0.555,0.001,1.055-0.237,1.403-0.615c0.313-0.339,0.504-0.793,0.504-1.291     c0-1.051-0.854-1.905-1.907-1.905c-1.051,0-1.904,0.854-1.904,1.905C27.443,32.855,28.296,33.708,29.347,33.708z"></path><circle fill="#000000" cx="41.177" cy="33.875" r="1.906"></circle><path fill="#000000" d="M66.492,16.187c-0.285-2.304-1.264-4.04-2.302-5.257c-2.138-2.507-5.106-3.707-6.701-4.352     C56.123,6.027,53.582,5,50.742,5c-1.932,0-4.277,0.487-6.425,2.23c-8.627-2.307-17.438-3.172-19.308,1.44l-2.342,5.791     c-0.269,0.66-0.195,1.411,0.199,2.005l0.953,1.445l-1.827,14.712l-0.641,1.25h-0.106c0,0.057,0.015,0.114,0.019,0.171     l-0.73,1.426c-0.195,0.38-0.274,0.809-0.226,1.233l5.48,48.327C25.935,91.577,36.806,95,47.543,95     c10.741,0,21.615-3.423,21.763-9.969L74.62,38.07l1.126-0.382c0.595-0.201,1.073-0.652,1.309-1.233l0.865-2.128     c0.016-0.037,0.029-0.073,0.042-0.111l1.441-3.564C81.263,26.03,74.308,20.523,66.492,16.187z M43.314,14.214     c1.625-4.018,4.052-5.97,7.422-5.97c2.21,0,4.288,0.841,5.531,1.342c1.338,0.541,3.827,1.546,5.449,3.449     c1.452,1.704,1.935,3.764,1.452,6.251c0.002,0.001,0.004,0.002,0.006,0.003c-0.161,0.828-0.428,1.702-0.802,2.627     c-0.111,0.275-0.189,0.275-0.347,0.275h-0.001c-0.003,0-0.004,0-0.006,0c-0.245,0-0.591-0.09-1.033-0.269     c-0.63-0.253-0.886-0.461-0.989-0.59c-0.052-0.063-0.099-0.123,0.003-0.375c0.244-0.606,0.427-1.166,0.558-1.689     c0.025-0.102,0.046-0.201,0.066-0.301c0.029-0.134,0.054-0.265,0.075-0.394c0.021-0.135,0.039-0.268,0.054-0.398     c0.337-3.159-1.751-4.729-5.441-6.221c-2.078-0.839-3.401-1.182-4.57-1.182c-1.643,0-2.768,0.759-3.596,1.781     c0.002,0.001,0.003,0.001,0.004,0.002c-0.637,0.786-1.103,1.725-1.462,2.615c-0.111,0.277-0.19,0.277-0.348,0.277     c0,0,0,0-0.001,0c-0.002,0-0.003,0-0.005,0c-0.245,0-0.593-0.09-1.032-0.269C43.118,14.701,43.222,14.443,43.314,14.214z      M42.402,11.189c-0.387,0.658-0.752,1.388-1.087,2.215c-0.376,0.93-0.592,2.659,2.182,3.781c0.719,0.29,1.304,0.425,1.843,0.425     c1.094,0,1.93-0.579,2.353-1.628c0.613-1.516,1.195-2.278,1.742-2.664c1.485,0.518,3.025,1.09,4.633,1.739     c1.605,0.649,3.106,1.306,4.531,1.964c0.177,0.798-0.053,1.775-0.599,3.126c-0.372,0.921-0.261,1.822,0.315,2.539     c0.396,0.493,0.99,0.888,1.866,1.242c0.719,0.291,1.304,0.425,1.844,0.425c1.093,0,1.929-0.579,2.353-1.628     c0.329-0.813,0.561-1.593,0.748-2.358c6.56,3.755,10.002,7.092,10.244,8.47c-3.847,0.85-12.928-0.398-24.78-5.189     c-11.832-4.78-19.222-10.181-21.414-13.467C30.385,9.354,35.157,9.356,42.402,11.189z M30.351,27.18     c2.553,0,4.623,2.069,4.623,4.622c0,2.553-2.07,4.622-4.623,4.622c-2.552,0-4.623-2.068-4.623-4.622     C25.728,29.25,27.798,27.18,30.351,27.18z M64.997,84.653c-0.011,0.081-0.015,0.162-0.015,0.243     c0,2.301-6.956,5.778-17.439,5.778c-10.479,0-17.431-3.478-17.431-5.778c0-0.081-0.006-0.163-0.014-0.244l-5.305-46.766     c4.643,2.303,13.475,3.757,23.614,3.757c8.758,0,16.813-1.136,21.795-2.986L64.997,84.653z M37.556,33.875     c0-2.553,2.071-4.622,4.624-4.622c2.552,0,4.623,2.069,4.623,4.622c0,2.554-2.071,4.622-4.623,4.622     C39.627,38.498,37.556,36.429,37.556,33.875z M73.911,32.692c-0.014,0.035-0.026,0.068-0.038,0.104l-0.422,1.037     c-3.175,0.917-11.994,0.111-24.912-5.106c-10.664-4.304-17.961-9.22-20.681-12.549l-0.755-1.143l1.236-3.072     c3.549,4.418,12.507,9.614,21.604,13.29c8.046,3.253,16.845,5.577,22.66,5.577c0.761,0,1.465-0.044,2.114-0.128L73.911,32.692z"></path></g></g></g><g><g><path fill="#000000" d="M92.021,28.25c-0.478-0.428-0.973-0.803-1.484-1.129c1.771-3.396,2.791-8.647-1.847-12.552    c-3.84-3.233-9.678-1.784-13.545,0.306c-4.433-3.206-10.446-0.256-13.345,2.043C38.69,35.263,33.881,39.081,20.45,47.44    c-9.818,6.109-10.112,12.039-9.643,14.628c-7.285,5.228-6.198,10.936-4.759,14.022c0.573,1.238,2.542,4.338,7.793,4.338    c1.598,0,3.507-0.296,5.766-1.009c1.144,5.119,4.987,7.905,11.067,7.905c6.833,0,15.543-3.59,21.141-7.146    c9.703-6.166,33.077-21.938,40.531-35.221C94.618,40.905,97.107,32.826,92.021,28.25z M22.145,50.162    c13.586-8.455,18.421-12.292,41.651-30.73c0.053-0.043,4.795-3.738,8.377-2.52c-2.379,1.997-4.714,3.932-7.021,5.83    c-0.68,0.41-1.265,0.903-1.774,1.458c-4.353,3.557-8.565,6.924-12.631,10.099c-2.008,0.504-4.158,1.748-6.083,4.684    c-3.55,2.698-6.968,5.226-10.246,7.582c-2.152,0.299-3.952,1.296-5.459,3.047c-0.423,0.49-0.765,1.004-1.051,1.528    c-5.088,3.491-9.786,6.506-14.017,8.979C14.064,57.971,15.513,54.288,22.145,50.162z M19.545,62.815    c-0.377-0.088-0.695-0.318-0.896-0.646c-0.197-0.322-0.256-0.703-0.166-1.073c0.155-0.648,0.732-1.102,1.405-1.102    c0.112,0,0.223,0.013,0.334,0.04c3.093,0.729,5.23,0.745,6.275,0.055c0.895-0.589,1.167-1.811,1.509-3.765    c0.31-1.767,0.696-3.962,2.166-5.667c1.525-1.771,3.321-2.596,5.653-2.596c0.986,0,1.911,0.144,2.729,0.271    c1.805,0.28,2.959,0.346,3.772-0.203c1.371-0.926,1.7-2.327,2.116-4.1c0.298-1.283,0.636-2.737,1.484-4.058    c3.063-4.764,6.642-4.48,9.319-4.339c0.529,0.028,0.996,0.049,1.418,0.049c1.472,0,2.606-0.254,3.708-1.523    c0.39-0.444,0.752-1.483,1.233-2.942c0.865-2.625,2.052-6.219,5.144-7.523c1.08-0.455,2.529-0.978,4.156-0.978    c1.235,0,2.434,0.292,3.666,0.89c0.343,0.167,0.602,0.458,0.726,0.819c0.122,0.36,0.099,0.747-0.07,1.09    c-0.34,0.69-1.227,1.001-1.931,0.659c-1.433-0.697-3.641-0.606-5.431,0.149c-1.888,0.799-2.755,3.443-3.523,5.781    c-0.53,1.61-0.99,3-1.792,3.919c-1.944,2.231-4.21,2.517-5.965,2.517c-0.526,0-1.03-0.026-1.507-0.052    c-0.537-0.029-1.03-0.054-1.491-0.054c-2.01,0-3.586,0.513-5.231,3.068c-0.579,0.903-0.835,2.001-1.108,3.164    c-0.464,1.997-0.991,4.263-3.307,5.826c-0.935,0.631-1.978,0.925-3.284,0.925c-0.882,0-1.733-0.132-2.559-0.261    c-0.852-0.131-1.614-0.24-2.315-0.24c-1.437,0-2.461,0.475-3.423,1.592c-0.958,1.111-1.229,2.66-1.518,4.308    c-0.372,2.133-0.757,4.342-2.761,5.657c-0.496,0.322-1.044,0.562-1.673,0.724C24.713,63.633,22.488,63.512,19.545,62.815z     M89.548,43.389c-7.097,12.646-29.954,28.049-39.453,34.084c-5.208,3.307-13.232,6.646-19.421,6.646c0,0,0,0-0.001,0h-0.001    c-5.299,0-7.921-2.689-8.21-7.483c-0.268-4.453,5.607-8.134,8.717-10.13C49.314,54.851,54.337,50.69,65.342,41.574    c2.601-2.154,5.546-4.594,9.086-7.482c4.362-3.564,7.908-5.294,10.838-5.294c0.539,0,1.049,0.08,1.547,0.198l0.001-0.001    c0.026,0.006,0.051,0.017,0.077,0.024c0.408,0.102,0.806,0.246,1.188,0.429c0.175,0.081,0.349,0.168,0.52,0.267    c0.124,0.072,0.247,0.145,0.368,0.227c0.309,0.205,0.614,0.428,0.91,0.694C93.465,33.862,91.23,40.388,89.548,43.389z"></path></g></g></svg>