<svg height='100px' width='100px'  fill="#000000" xmlns="http://www.w3.org/2000/svg" xmlns:xlink="http://www.w3.org/1999/xlink" version="1.1" x="0px" y="0px" viewBox="0 0 100 100" enable-background="new 0 0 100 100" xml:space="preserve"><path d="M58.621,13.398c0,0.853-0.694,1.544-1.55,1.544H42.928c-0.855,0-1.549-0.691-1.549-1.544V1.544  C41.379,0.691,42.073,0,42.928,0h14.143c0.855,0,1.55,0.691,1.55,1.544V13.398z"></path><path d="M58.621,33.007V20.689H41.379v12.317c-12.644,3.752-20.69,15.036-20.69,28.373c0,0.069,0,32.378,0,32.378  c0,3.636,2.462,6.242,6.098,6.242h46.245c3.637,0,6.278-2.606,6.278-6.242c0,0,0-32.309,0-32.378  C79.311,48.042,71.265,36.759,58.621,33.007z M30.515,53.672c2.269-6.458,7.204-11.68,13.541-14.326  c0.806-0.336,1.726,0.045,2.061,0.847c0.334,0.802-0.044,1.725-0.846,2.06c-5.516,2.303-9.811,6.846-11.783,12.464  c-0.228,0.647-0.836,1.054-1.486,1.054c-0.173,0-0.349-0.029-0.522-0.09C30.659,55.392,30.226,54.492,30.515,53.672z M72.414,83.688  c0,2.1-2.082,3.668-4.177,3.668H31.581c-2.092,0-3.995-1.568-3.995-3.668V68.293c0-2.102,1.902-3.925,3.995-3.925h36.656  c2.095,0,4.177,1.823,4.177,3.925V83.688z"></path><rect x="35.504" y="69.789" transform="matrix(0.7072 0.707 -0.707 0.7072 64.5849 -3.9644)" width="3.149" height="12.404"></rect><rect x="30.877" y="74.417" transform="matrix(0.707 0.7072 -0.7072 0.707 64.6007 -3.9589)" width="12.404" height="3.149"></rect><rect x="48.34" y="69.788" transform="matrix(0.7072 0.707 -0.707 0.7072 68.3434 -13.0398)" width="3.149" height="12.405"></rect><rect x="43.712" y="74.417" transform="matrix(0.7071 0.7071 -0.7071 0.7071 68.356 -13.0371)" width="12.404" height="3.149"></rect><rect x="61.167" y="69.789" transform="matrix(0.7073 0.707 -0.707 0.7073 72.0887 -22.11)" width="3.15" height="12.404"></rect><rect x="56.54" y="74.416" transform="matrix(0.707 0.7072 -0.7072 0.707 72.1214 -22.1067)" width="12.403" height="3.15"></rect></svg>