<?xml version="1.0" encoding="utf-8"?>
<!-- Generator: Adobe Illustrator 24.1.3, SVG Export Plug-In . SVG Version: 6.00 Build 0)  -->
<svg version="1.1" id="Layer_1" xmlns="http://www.w3.org/2000/svg" xmlns:xlink="http://www.w3.org/1999/xlink" x="0px" y="0px"
	 viewBox="0 0 100 100" style="enable-background:new 0 0 100 100;" xml:space="preserve">
<path d="M79.5,0c-1.3,0-2.3,1-2.3,2.3c0,0,0,0,0,0v11.4H65.9c-1.3,0-2.3,1-2.3,2.3c0,0,0,0,0,0c0,6,4.3,11.9,10.6,14.1
	c-0.1,3.7-4.6,7.8-12.1,8.3c-0.8-4.3-3-9.2-5.4-11.7l2.4-14.9c0.2-1.2-0.7-2.4-1.9-2.6C55.9,9,54.8,9.8,54.6,11l-2.1,12.3
	c-1.6-0.8-3.5-0.8-5.1,0L45.4,11c-0.2-1.2-1.4-2.1-2.6-1.8c-1.2,0.2-2,1.4-1.8,2.6l2.4,14.9c-2.4,2.4-4.7,7.4-5.4,11.7
	c-7.6-0.6-12-4.6-12.1-8.3c6.3-2.2,10.6-8.2,10.6-14.1c0-1.3-1-2.3-2.3-2.3c0,0,0,0,0,0H22.7V2.3c0-1.3-1-2.3-2.3-2.3c0,0,0,0,0,0
	C11.7,0,4.6,7.1,4.5,15.8c0,6.3,3.7,12,9.4,14.5c1,10.7,11.6,17.2,22.6,18c-0.1,1.4-0.2,2.7-0.2,3.9c0,0.6,0,1.4,0.1,2.3h-6.4
	l-8.6-4.3c-1.1-0.6-2.5-0.1-3,1c-0.6,1.1-0.1,2.5,1,3l9.1,4.5c0.3,0.2,0.7,0.2,1,0.2h7.4c0.2,1.4,0.4,3,0.6,4.5h-7.5l-8.6-4.3
	c-1.1-0.6-2.5-0.1-3,1c-0.6,1.1-0.1,2.5,1,3l9.1,4.5c0.3,0.2,0.7,0.2,1,0.2h8.7l2.7,18.2l-4.3,5.8c-0.2,0.3-0.2,0.7-0.2,1v4.5
	c0,1.3,1,2.3,2.3,2.3c0,0,0,0,0,0h22.7c1.3,0,2.3-1,2.3-2.3c0,0,0,0,0,0v-4.5c0-0.4-0.1-0.7-0.2-1l-4.3-5.8l2.7-18.2h8.7
	c0.4,0,0.7-0.1,1-0.2l9.1-4.5c1.1-0.6,1.6-1.9,1-3c-0.6-1.1-1.9-1.6-3-1l0,0l-8.6,4.3h-7.5c0.2-1.6,0.4-3.1,0.6-4.5h7.4
	c0.4,0,0.7-0.1,1-0.2l9.1-4.5c1.1-0.6,1.6-1.9,1-3c-0.6-1.1-1.9-1.6-3-1l-8.6,4.3h-6.4c0.1-0.9,0.1-1.7,0.1-2.3
	c0-1.3-0.1-2.6-0.2-3.9c11-0.8,21.6-7.3,22.6-18c8-3.6,11.6-13,8-21C91.5,3.7,85.8,0,79.5,0z M51.7,63.6h-3.4c-1.3,0-2.3-1-2.3-2.3
	s1-2.3,2.3-2.3h3.4c1.3,0,2.3,1,2.3,2.3S53,63.6,51.7,63.6z M52.3,54.5h-4.5c-1.3,0-2.3-1-2.3-2.3s1-2.3,2.3-2.3h4.5
	c1.3,0,2.3,1,2.3,2.3S53.5,54.5,52.3,54.5z"/>
</svg>
