<svg height='100px' width='100px'  fill="#000000" xmlns="http://www.w3.org/2000/svg" xmlns:xlink="http://www.w3.org/1999/xlink" version="1.1" x="0px" y="0px" viewBox="0 0 100 100" style="enable-background:new 0 0 100 100;" xml:space="preserve"><path d="M82.8,8.6c-0.6-0.5-1.6-0.5-2.1,0.1L67.3,24.1H18.2c-0.6,0-1.1,0.3-1.4,0.9c-0.2,0.5-0.1,1.2,0.2,1.6l28,31.8v30.3h-9.6  c-0.8,0-1.5,0.7-1.5,1.5c0,0.8,0.7,1.5,1.5,1.5h22.1c0.8,0,1.5-0.7,1.5-1.5c0-0.8-0.7-1.5-1.5-1.5H48V58.5l28-31.8  c0.4-0.4,0.5-1.1,0.2-1.6c-0.2-0.5-0.8-0.9-1.4-0.9h-3.6L83,10.7C83.5,10.1,83.4,9.1,82.8,8.6z M29.4,36.2l-7.9-9h43.2l-7.9,9H29.4z   M71.5,27.1l-7.9,9h-2.8l7.9-9H71.5z"></path></svg>