<?xml version="1.0" encoding="utf-8"?>
<!-- Generator: Adobe Illustrator 24.1.3, SVG Export Plug-In . SVG Version: 6.00 Build 0)  -->
<svg version="1.1" id="Layer_1" xmlns="http://www.w3.org/2000/svg" xmlns:xlink="http://www.w3.org/1999/xlink" x="0px" y="0px"
	 viewBox="0 0 100 100" style="enable-background:new 0 0 100 100;" xml:space="preserve">
<style type="text/css">
	.st0{stroke:#000000;stroke-width:1.2853;stroke-miterlimit:12.8535;}
	.st1{fill:none;stroke:#000000;stroke-width:1.2853;stroke-miterlimit:12.8535;}
</style>
<path class="st0" d="M0.5,57.1c-1.5,1.6,0.9,6.1,3,8.5c2.8,3.3,7.9,6.1,9.7,4.6s0.4-7.6-3.3-10.9C6.9,56.7,2,55.5,0.5,57.1z"/>
<path class="st0" d="M25.2,69.5c-1.2,0.9,0.3,5.4,3,8.5c3.3,3.7,8.7,5.8,9.7,4.6c1.2-1.3-2.4-6.4-6-9.6
	C30.2,71.5,26.4,68.5,25.2,69.5z"/>
<path class="st0" d="M49.9,79.7c-0.9,0.7,1.5,5.5,4.9,8.8c2.8,2.7,6.9,5.2,7.8,4.3c0.9-0.9-2.2-6-6.1-9.3
	C54.3,81.7,50.6,79,49.9,79.7z"/>
<path class="st0" d="M3.6,47.7c-0.1-0.4-0.3-1.2,1-4.2c0.9-1.9,1.6-3.6,3.4-5.7c0.6-0.7,2.5-3.1,6.9-6.1c4-2.8,4.6-2.4,9.1-5.5
	c1.8-1.2,4-2.8,6.7-5.2c3.4-3.1,3.4-4,6-6c1.2-0.9,3.1-1.6,7-3.3c3.4-1.5,5.1-2.1,7.5-2.8c3.1-0.9,5.2-1.6,7.9-1.8
	c2.7-0.1,6.6-0.4,10.2,1.6c2.8,1.6,2.2,3.1,5.5,4.8c1.9,1,2.7,0.7,7.5,2.2c3.3,1,4.9,1.5,6.7,2.5c2.8,1.5,4.6,3.3,5.1,3.7
	c0.9,0.9,2.8,3,4.2,6.1c0.7,1.8,1.9,4.5,1.3,7.8c-0.6,3.4-2.2,3.4-3.7,7.9c-1.2,3.6-0.1,3.9-1.3,7.2c-1.2,3.4-2.5,3.7-4.9,7.9
	c-2.2,3.7-1.5,3.9-4.2,9.3c-2.4,4.9-4.6,7.8-6.1,9.6c-2.5,3.1-5.1,6.1-7.3,5.5c-1.3-0.3-1.9-1.8-3.4-4.8c-1.8-3.4-1.2-4.2-2.7-6.3
	c-0.1-0.1-3.1-4-6.3-3.4c-0.9,0.1-1.5,0.6-2.5,1.5c-2.4,1.9-2.2,3.3-3.4,3.4c-1.9,0.3-4-2.1-5.1-3.7c-0.9-1.6-1.2-3.1-1.2-4
	c0-0.1-0.1-0.4-0.1-0.9c-0.3-1.6,0-2.2-0.1-2.8c-0.3-0.9-1-1.3-1.9-1.8c-4.6-2.7-7-4.2-8.7-4c-0.4,0-3,0.3-4.8,2.1
	c-1.2,1.3-1,2.2-1.9,2.7c-1.9,0.9-5.7-1.2-6.4-4c-0.3-1.2,0.1-1.3,0-3c-0.4-2.8-2.2-4.8-2.5-4.9c-0.6-0.6-3.3-3-6.3-2.5
	c-2.8,0.4-3.1,3.1-5.7,3.3C6.8,50.2,4.4,49.3,3.6,47.7z"/>
<line class="st1" x1="0.5" y1="57.1" x2="13.9" y2="47.1"/>
<line class="st1" x1="13.2" y1="70.3" x2="23.7" y2="57.3"/>
<line class="st1" x1="25.2" y1="69.5" x2="33.1" y2="57.3"/>
<line class="st1" x1="37.9" y1="82.6" x2="47.3" y2="62.8"/>
<line class="st1" x1="49.9" y1="79.7" x2="55.7" y2="72.1"/>
<line class="st1" x1="62.4" y1="92.9" x2="68.7" y2="78.8"/>
</svg>
