<svg height='100px' width='100px'  fill="#000000" xmlns="http://www.w3.org/2000/svg" xmlns:xlink="http://www.w3.org/1999/xlink" version="1.1" x="0px" y="0px" viewBox="0 0 16 16" style="enable-background:new 0 0 16 16;" xml:space="preserve"><g><path d="M10.5,16h-5C5.224,16,5,15.776,5,15.5v-1.047c-3.005-1.14-5-3.892-5-6.953C0,7.224,0.224,7,0.5,7h15   C15.776,7,16,7.224,16,7.5c0,3.062-1.994,5.813-5,6.953V15.5C11,15.776,10.776,16,10.5,16z M6,15h4v-0.9   c0-0.216,0.139-0.407,0.344-0.475c2.614-0.863,4.424-3.085,4.636-5.625H1.021c0.211,2.54,2.021,4.762,4.636,5.625   C5.861,13.692,6,13.884,6,14.1V15z"></path><path d="M6,8C5.849,8,5.699,7.932,5.601,7.802C5.213,7.289,5,6.649,5,6c0-1.572,1.215-2.865,2.755-2.99C8.326,2.365,9.132,2,10,2   s1.674,0.365,2.245,1.01C13.785,3.135,15,4.428,15,6c0,0.648-0.214,1.288-0.601,1.801c-0.167,0.221-0.481,0.264-0.7,0.098   c-0.221-0.166-0.265-0.479-0.099-0.7C13.858,6.858,14,6.432,14,6c0-1.103-0.897-2-2-2c-0.157,0-0.305-0.074-0.399-0.199   c-0.768-1.019-2.434-1.019-3.201,0C8.305,3.926,8.157,4,8,4C6.897,4,6,4.897,6,6c0,0.433,0.142,0.858,0.399,1.198   c0.167,0.221,0.123,0.534-0.097,0.701C6.211,7.967,6.105,8,6,8z"></path><path d="M5.5,8C5.351,8,5.204,7.934,5.105,7.807C4.98,7.646,4.969,7.434,5.058,7.266L2.277,4.484   C1.831,5.252,1.933,6.259,2.585,6.918c0.072,0.072,0.147,0.129,0.221,0.187c0.218,0.17,0.258,0.484,0.088,0.702   C2.726,8.025,2.411,8.065,2.193,7.895C2.087,7.812,1.982,7.729,1.876,7.624c-1.16-1.172-1.16-3.075-0.002-4.245   C1.969,3.284,2.128,3.194,2.23,3.23c0.133,0,0.26,0.053,0.354,0.146l3.54,3.54c0.195,0.195,0.195,0.512,0,0.707   C6.018,7.729,5.913,7.812,5.807,7.895C5.716,7.966,5.607,8,5.5,8z"></path><path d="M5.5,8C5.224,8,5,7.776,5,7.5V2.051C3.993,2.257,3.186,3.075,3.035,4.112C2.995,4.385,2.741,4.58,2.468,4.535   c-0.273-0.04-0.462-0.293-0.422-0.567C2.292,2.276,3.777,1,5.5,1C5.776,1,6,1.224,6,1.5v6C6,7.776,5.776,8,5.5,8z"></path><path d="M10,8C9.724,8,9.5,7.776,9.5,7.5v-2C9.5,5.224,9.724,5,10,5s0.5,0.224,0.5,0.5v2C10.5,7.776,10.276,8,10,8z"></path><path d="M10,8C9.896,8,9.79,7.967,9.7,7.9l-2-1.5C7.479,6.234,7.434,5.921,7.6,5.7c0.166-0.222,0.479-0.265,0.7-0.1l2,1.5   c0.221,0.166,0.266,0.479,0.101,0.7C10.302,7.931,10.151,8,10,8z"></path><path d="M10,8C9.849,8,9.698,7.931,9.6,7.8C9.435,7.579,9.479,7.266,9.7,7.1l2-1.5c0.22-0.165,0.534-0.123,0.7,0.1   c0.165,0.221,0.12,0.534-0.101,0.7l-2,1.5C10.21,7.967,10.104,8,10,8z"></path></g></svg>