<?xml version="1.0" encoding="utf-8"?>
<!-- Generator: Adobe Illustrator 24.1.3, SVG Export Plug-In . SVG Version: 6.00 Build 0)  -->
<svg version="1.1" id="Layer_1" xmlns="http://www.w3.org/2000/svg" xmlns:xlink="http://www.w3.org/1999/xlink" x="0px" y="0px"
	 viewBox="0 0 100 100" style="enable-background:new 0 0 100 100;" xml:space="preserve">
<g>
	<path d="M70.8,31.6c-2.4-1.3-4.9-2.4-7.9-3.6c-0.9-0.4-1.7-0.6-2.6-1.1c-1.7,3.4-4.7,10.3-5.8,18c3,0.4,7.7,1.5,12.4,4.1
		C67.2,42.7,68.9,36.5,70.8,31.6z"/>
	<path d="M74.5,33.7c-1.7,4.9-3.6,11.4-3.6,17.6h-0.4c1.9,1.3,3.6,3,5.1,4.9c4.9-3.4,10.1-5.8,13.9-7.3
		C87.8,45.3,83.5,39.3,74.5,33.7z"/>
	<path d="M50.9,100c0,0,14.8-12.9,18.5-15l0,0c-1.5-3.4-3.6-7.5-6.4-10.9c-4.9,0.2-11.4-0.2-19.7-1.9c0,0-0.9,7.1,8.8,11.4
		C52.4,83.3,46.1,92.1,50.9,100z"/>
	<path d="M26,0C16.3,0.4,5.2,8,8.2,15.9c2.4,6.2,12,9.9,14.6,10.7l0,0c1.1,4.5,3.2,9.4,7.9,13.9c0,0,5.4,5.1,18.7,4.1
		c0.2,0,0.4,0,0.6,0c1.3-8.4,4.5-15.9,6.2-19.5c-5.8-2.8-15.4-7.1-19.5-7.5l-14.2-3c0,0-0.9,4.1-0.2,9.7l0,0
		c-3.4-1.3-10.3-4.5-11.8-9c-0.9-2.1-0.2-4.1,1.5-6.4c3-3.9,8.4-6.4,14.2-6.7c10.7-0.4,32.6,2.1,56.4,22.1l1.7-1.5
		C59.7,2.2,37.1-0.2,26,0z M31.8,22.1c0.9,0,1.7,0.9,1.7,1.7c0,0.9-0.9,1.7-1.7,1.7c-1.1,0-1.7-0.9-1.7-1.7
		C30,22.8,30.9,22.1,31.8,22.1z"/>
	<path d="M91.2,53c-3.6,1.5-8.8,3.9-13.3,7.1c1.5,4.5-0.6,9.7-5.1,11.6c-1.3,0.6-3,1.1-4.9,1.5c2.6,3.6,4.5,7.7,6,10.9
		C81.3,82.6,96.8,76.2,91.2,53z"/>
</g>
</svg>
