<?xml version="1.0" encoding="utf-8"?>
<!-- Generator: Adobe Illustrator 24.1.3, SVG Export Plug-In . SVG Version: 6.00 Build 0)  -->
<svg version="1.1"
	 id="Layer_1" xmlns:cc="http://creativecommons.org/ns#" xmlns:dc="http://purl.org/dc/elements/1.1/" xmlns:inkscape="http://www.inkscape.org/namespaces/inkscape" xmlns:rdf="http://www.w3.org/1999/02/22-rdf-syntax-ns#" xmlns:sodipodi="http://sodipodi.sourceforge.net/DTD/sodipodi-0.dtd" xmlns:svg="http://www.w3.org/2000/svg"
	 xmlns="http://www.w3.org/2000/svg" xmlns:xlink="http://www.w3.org/1999/xlink" x="0px" y="0px" viewBox="0 0 100 100"
	 style="enable-background:new 0 0 100 100;" xml:space="preserve">
<style type="text/css">
	.st0{fill-rule:evenodd;clip-rule:evenodd;}
</style>
<g transform="translate(0,-952.36216)">
	<path class="st0" d="M55,960.3c-1.5,0-3,0-4.6,0.1c-8.8,0.4-17.4,2.1-25.3,5.5c-7.9,3.4-15,8.6-20.1,15.3c-2.3,3-4,6.3-4.4,9.5
		c-0.2,1.6-0.1,3.3,0.4,4.7c0.5,1.4,1.3,2.7,2.4,3.6c0.9,0.8,2.2,1.4,3.5,1.7c1.4,0.4,2.9,0.5,4.5,0.5c3.3,0.1,7-0.4,11,0.3
		c7.2,1.2,12.9,5.7,17.7,10.2c4.7,4.5,8.8,9.1,13.7,12c5.9,3.5,13.2,4.8,20,3.5c6.8-1.3,13.2-5,17.8-10.2c4.8-5.5,7.7-12.8,8-20.1
		c0.3-7.3-2-14.8-6.4-20.6c-4.6-6.1-11.5-10.6-18.9-13.1c-5.6-1.9-11.6-2.8-17.7-2.9C56,960.3,55.5,960.3,55,960.3L55,960.3z
		 M69,990.9c5.7,0,10.3,3.4,10.3,7.6c0,4.2-4.6,7.6-10.3,7.6c-5.7,0-10.3-3.4-10.3-7.6v0C58.8,994.3,63.4,990.9,69,990.9
		C69,990.9,69,990.9,69,990.9z M0.4,1002.2v6.8c0,0.5,0,1.1,0.1,1.6c0.1,0.5,0.2,1,0.4,1.5c0.2,0.5,0.3,0.9,0.6,1.3
		c0.2,0.4,0.5,0.8,0.8,1.2c0.3,0.4,0.6,0.7,1,1.1c0.3,0.3,0.7,0.5,1.1,0.7c0.4,0.2,0.8,0.4,1.2,0.6c0.4,0.2,0.8,0.3,1.3,0.4
		c0.5,0.1,1,0.2,1.5,0.3c0.5,0.1,1,0.1,1.5,0.2c0.5,0,1,0.1,1.5,0.1c0.5,0,1,0,1.6,0c0.5,0,1,0,1.6,0c0.5,0,1,0,1.6,0l1.6,0l1.6,0
		l1.6,0.1l1.6,0.2l1.6,0.3l1.5,0.4l1.5,0.5l1.5,0.6l1.4,0.7l1.4,0.8l1.4,0.8l1.3,0.9l1.3,0.9l1.2,1l1.2,1l1.2,1.1
		c0.4,0.4,0.8,0.7,1.2,1.1c0.4,0.3,0.7,0.7,1.1,1.1c0.4,0.4,0.7,0.7,1.1,1.1c0.4,0.4,0.7,0.7,1.1,1.1c0.4,0.4,0.7,0.7,1.1,1.1
		c0.4,0.4,0.7,0.7,1.1,1.1c0.4,0.4,0.7,0.7,1.1,1c0.4,0.3,0.7,0.7,1.1,1c0.4,0.3,0.8,0.7,1.1,1c0.4,0.3,0.8,0.7,1.2,1
		c0.4,0.3,0.8,0.6,1.2,0.9c0.4,0.3,0.8,0.6,1.2,0.9c0.4,0.3,0.8,0.6,1.3,0.8c0.5,0.3,0.9,0.5,1.4,0.8c0.5,0.2,0.9,0.5,1.4,0.7
		c0.5,0.2,1,0.4,1.5,0.6c0.5,0.2,1,0.4,1.5,0.5c0.5,0.2,1,0.3,1.5,0.4c0.5,0.1,1,0.3,1.6,0.4c0.5,0.1,1,0.2,1.6,0.3
		c0.5,0.1,1.1,0.1,1.6,0.2c0.5,0,1.1,0.1,1.6,0.1c0.5,0,1.1,0,1.6,0c0.5,0,1.1,0,1.6-0.1c0.5,0,1.1-0.1,1.6-0.2
		c0.5-0.1,1.1-0.1,1.6-0.2c0.5-0.1,1.1-0.2,1.6-0.3c0.5-0.1,1-0.3,1.6-0.4c0.5-0.2,1-0.3,1.5-0.5c0.5-0.2,1-0.4,1.5-0.6
		c0.5-0.2,1-0.4,1.5-0.7c0.5-0.2,1-0.5,1.4-0.7c0.5-0.3,0.9-0.5,1.4-0.8c0.5-0.3,0.9-0.6,1.3-0.9c0.4-0.3,0.9-0.6,1.3-0.9
		c0.4-0.3,0.8-0.7,1.3-1c0.4-0.3,0.8-0.7,1.2-1.1c0.4-0.4,0.8-0.7,1.1-1.1c0.4-0.4,0.7-0.8,1.1-1.2c0.3-0.4,0.7-0.8,1-1.2
		c0.3-0.4,0.6-0.8,0.9-1.3c0.3-0.4,0.6-0.9,0.9-1.3c0.3-0.4,0.6-0.9,0.8-1.3c0.3-0.5,0.5-0.9,0.8-1.4c0.2-0.5,0.5-0.9,0.7-1.4
		c0.2-0.5,0.4-1,0.6-1.4c0.2-0.5,0.4-1,0.5-1.5c0.2-0.5,0.3-1,0.5-1.5c0.1-0.5,0.3-1,0.4-1.5c0.1-0.5,0.2-1,0.3-1.5
		c0.1-0.5,0.2-1,0.3-1.6c0.1-0.5,0.1-1,0.2-1.6c0-0.5,0.1-1,0.1-1.6c0-0.3,0-0.6,0-1c-1.3,2.6-3,5-4.9,7.2
		c-5.2,6-12.4,10.2-20.1,11.6c-7.8,1.4-16.1,0.1-22.9-4c-5.6-3.4-9.9-8.2-14.4-12.5c-4.5-4.3-9.6-8.1-15.5-9.1
		c-3.3-0.6-6.7-0.2-10.4-0.2c-1.8,0-3.7-0.2-5.5-0.7c-1.8-0.5-3.6-1.3-5.2-2.5C0.6,1002.3,0.5,1002.2,0.4,1002.2L0.4,1002.2z"/>
</g>
</svg>
