<?xml version="1.0" encoding="utf-8"?>
<!-- Generator: Adobe Illustrator 24.1.3, SVG Export Plug-In . SVG Version: 6.00 Build 0)  -->
<svg version="1.1" id="Layer_1" xmlns="http://www.w3.org/2000/svg" xmlns:xlink="http://www.w3.org/1999/xlink" x="0px" y="0px"
	 viewBox="0 0 100 100" style="enable-background:new 0 0 100 100;" xml:space="preserve">
<path d="M11.6,50.6l4.8-2.5c1.1-0.5,1.9-1.8,1.9-3L18,39.8c0-0.5,0-1,0.1-1.6c-9.2,7.2-15.4,17.4-17.5,29c-0.2,1.3-0.4,2.4-0.5,3.5
	c-0.1,0.8,0.2,1.8,0.7,2.4c0.7,0.7,1.7,1.1,2.7,1.1h0.2c0.4,0,0.9-0.1,1.3-0.2s0.7-0.1,1-0.3c0.1,0,0.2,0,0.3-0.1
	c0.2-0.1,0.4-0.1,0.6-0.3c0.2-0.1,0.5-0.2,0.7-0.3c0.6-0.3,1.1-0.7,1.7-1.3c0.2-0.2,0.3-0.3,0.5-0.5c0.1-0.1,0.1-0.2,0.2-0.3
	c0.2-0.3,0.4-0.6,0.6-0.9c0.3-0.5,0.4-1.1,0.5-1.8v-0.3c0.1-0.6,0.3-1.3,0.5-1.9l0,0l-2.9-4.5c-1.1-1.8-1.6-4-1-6.1
	C8.3,53.4,9.7,51.7,11.6,50.6z"/>
<path d="M36.1,29.7L36.1,29.7c-2.8,0.6-5.5,1.5-8.2,2.5l3.4,0.2C33.4,32.6,35.2,31.5,36.1,29.7z"/>
<path d="M14.7,58.2c0.3-0.6,0.7-1.4,1.1-2c0.4-0.6,0.8-1.4,1.3-2c0.1-0.1,0.2-0.3,0.3-0.4c0.4-0.6,0.9-1.3,1.4-1.9c0,0,0,0,0-0.1
	c-0.1,0.1-0.2,0.2-0.4,0.2l-4.8,2.5c-0.8,0.4-1.5,1.1-1.7,2.1c-0.2,0.9-0.1,1.9,0.4,2.6l1.1,1.7v-0.1c0.3-0.7,0.6-1.4,0.9-2.1
	C14.5,58.6,14.6,58.4,14.7,58.2z"/>
<path d="M23.7,46.6L23.7,46.6c0.6-0.6,1.3-1.1,1.9-1.6c0.5-0.4,1-0.8,1.6-1.3c2.1-1.6,4.3-3,6.6-4.2c0.6-0.3,1.3-0.6,2-0.9
	c0.6-0.3,1.4-0.6,2.1-0.9c0.9-0.4,1.9-0.7,2.8-1c0.6-0.2,1.4-0.4,2-0.6c0.8-0.3,1.6-0.5,2.4-0.6c0.7-0.2,1.5-0.4,2.2-0.5
	c0.2,0,0.5-0.1,0.7-0.1c0.6-0.1,1.3-0.2,1.9-0.3c0.1,0,0.3,0,0.4-0.1c0.6-0.1,1.3-0.2,2-0.2c1.8-0.2,3.7-0.3,5.4-0.3
	c1.4,0,2.7,0,4,0.1c0.3,0,0.7,0,1,0.1c0.4,0,0.7,0.1,1.1,0.1c4.8,0.5,9.5,1.9,14,3.8c3.3,1.5,6.6,3.2,9.5,5.4l0.1-3.5
	c0-0.9-0.3-1.8-0.9-2.5c-0.7-0.7-1.7-1-2.6-1l-5.6,0.1c-0.8,0-1.7,0-2.5-0.3c-1.9-0.5-3.4-1.7-4.5-3.3c-0.1-0.2-0.2-0.3-0.3-0.5
	l-2.5-4.7c-0.4-0.8-1.3-1.5-2.1-1.7c-0.9-0.2-2-0.1-2.7,0.4l-2.3,1.5L59,29.1c-1.1,0.7-2.5,1.1-3.8,1.1c-1.3,0.1-2.6-0.2-3.8-0.7
	c-0.3-0.1-0.5-0.2-0.8-0.4L46,26.2c-1.6-1-3.8-0.5-4.8,1c0,0.1-0.1,0.1-0.1,0.2l-0.9,1.8l-1.6,3c-1.4,2.7-4.3,4.3-7.2,4.1L26,36.1
	c-0.9,0-1.9,0.3-2.6,1c-0.6,0.6-1,1.6-0.9,2.5l0.3,5.3c0,1.1-0.1,2.2-0.6,3.2C22.6,47.6,23.2,47.1,23.7,46.6z"/>
<path d="M99.6,73.7c0.3-0.3,0.4-0.6,0.4-1c0-0.1,0-0.3,0-0.4c-0.3-2.3-0.8-4.6-1.6-6.9c-0.5-1.7-1.1-3.3-2-4.8
	c-1.8-3.5-4.2-6.9-7-9.7c-3.8-3.8-8.1-6.8-13-9l-0.9-0.3c-1.6-0.6-3-1.1-4.7-1.7c-0.6-0.2-1.3-0.4-1.9-0.5c-0.7-0.2-1.4-0.3-2.1-0.5
	h-0.1c-0.7-0.1-1.6-0.3-2.3-0.4c-0.6-0.1-1.3-0.2-1.9-0.2c-0.1,0-0.2,0-0.3,0c-0.3,0-0.6-0.1-0.8-0.1c-0.5-0.1-1-0.1-1.6-0.1
	c-0.8,0-1.6-0.1-2.4-0.1c-1.8,0-3.5,0.1-5.3,0.3c-0.4,0-0.8,0.1-1.4,0.2c-0.7,0.1-1.5,0.2-2.2,0.3c-0.5,0.1-1,0.2-1.6,0.3
	c-0.1,0-0.1,0-0.2,0l-1.1,0.3c-2.2,0.5-4.3,1.3-6.3,2.1c-0.5,0.2-1,0.4-1.6,0.7c-0.6,0.3-1.1,0.5-1.7,0.8c-0.5,0.3-1,0.5-1.5,0.8
	c-0.4,0.2-0.8,0.5-1.3,0.7c-0.6,0.3-1.1,0.7-1.7,1c-0.5,0.3-0.9,0.6-1.5,1c-1.4,1-2.7,2.1-4,3.3c-0.4,0.4-0.8,0.8-1.3,1.3
	c-0.4,0.4-0.9,0.9-1.4,1.4c-0.6,0.6-1.1,1.4-1.7,2c-0.8,1.1-1.7,2.3-2.4,3.5c-0.2,0.3-0.4,0.6-0.5,0.9c-0.5,0.8-0.9,1.7-1.4,2.6
	c-0.2,0.4-0.3,0.7-0.5,1.1c-0.4,1-0.8,2.1-1.1,3.1c-0.3,0.9-0.6,2-0.8,2.9c-0.1,0.7-0.2,1.4-0.4,2.1c-0.2,0.5-0.4,0.9-0.6,1.5
	c-0.2,0.4-0.5,0.8-0.7,1.3c-0.1,0.1-0.1,0.2-0.2,0.3c0,0,0,0,0,0.1c-0.1,0.1-0.2,0.3-0.3,0.4h85.3C98.9,74.3,99.3,74.1,99.6,73.7z"
	/>
</svg>
